<svg width="16cm" height="18cm" viewBox="0 58 785 863" 
     xmlns="http://www.w3.org/2000/svg" xmlns:xlink="http://www.w3.org/1999/xlink">
  <text font-size="12.8" style="fill: #000000;text-anchor:start;font-family:sans-serif;font-style:normal;font-weight:normal" x="460.276" y="100">
    <tspan x="460.276" y="100"></tspan>
  </text>
  <g>
    <rect style="fill: #add8e6" x="354.851" y="200" width="190.85" height="60"/>
    <rect style="fill: none; fill-opacity:0; stroke-width: 2; stroke: #000000" x="354.851" y="200" width="190.85" height="60"/>
    <text font-size="16.9333" style="fill: #000000;text-anchor:middle;font-family:sans-serif;font-style:normal;font-weight:700" x="450.276" y="232.117">
      <tspan x="450.276" y="232.117">Surrogated &lt;Item&gt;</tspan>
    </text>
  </g>
  <g>
    <rect style="fill: #d8e5e5" x="600" y="200" width="180" height="80"/>
    <rect style="fill: none; fill-opacity:0; stroke-width: 2; stroke: #000000" x="600" y="200" width="180" height="80"/>
    <text font-size="16.9333" style="fill: #000000;text-anchor:middle;font-family:sans-serif;font-style:italic;font-weight:normal" x="690" y="235.883">
      <tspan x="690" y="235.883">Surrogated</tspan>
      <tspan x="690" y="257.05">Composite</tspan>
    </text>
  </g>
  <g>
    <rect style="fill: #add8e6" x="360" y="360" width="180" height="60"/>
    <rect style="fill: none; fill-opacity:0; stroke-width: 2; stroke: #000000" x="360" y="360" width="180" height="60"/>
    <text font-size="16.9333" style="fill: #000000;text-anchor:middle;font-family:sans-serif;font-style:normal;font-weight:700" x="450" y="392.117">
      <tspan x="450" y="392.117">Hashed &lt;Item&gt;</tspan>
    </text>
  </g>
  <g>
    <rect style="fill: #d8e5e5" x="360" y="60" width="180.55" height="60"/>
    <rect style="fill: none; fill-opacity:0; stroke-width: 2; stroke: #000000" x="360" y="60" width="180.55" height="60"/>
    <text font-size="16.9333" style="fill: #000000;text-anchor:middle;font-family:sans-serif;font-style:italic;font-weight:normal" x="450.275" y="96.4667">
      <tspan x="450.275" y="96.4667">Surrogated Item</tspan>
    </text>
  </g>
  <g>
    <line style="fill: none; fill-opacity:0; stroke-width: 2; stroke: #000000" x1="450.276" y1="200" x2="450.276" y2="152.236"/>
    <polygon style="fill: #ffffff" points="465.276,152.236 450.276,122.236 435.276,152.236 "/>
    <polygon style="fill: none; fill-opacity:0; stroke-width: 2; stroke: #000000" points="465.276,152.236 450.276,122.236 435.276,152.236 "/>
  </g>
  <g>
    <polyline style="fill: none; fill-opacity:0; stroke-width: 2; stroke: #000000" points="690,200 690,180 495.412,180 495.412,152.236 "/>
    <polygon style="fill: #ffffff" points="510.412,152.236 495.412,122.236 480.412,152.236 "/>
    <polygon style="fill: none; fill-opacity:0; stroke-width: 2; stroke: #000000" points="510.412,152.236 495.412,122.236 480.412,152.236 "/>
  </g>
  <g>
    <rect style="fill: #d8e5e5" x="120.275" y="200" width="180" height="60"/>
    <rect style="fill: none; fill-opacity:0; stroke-width: 2; stroke: #000000" x="120.275" y="200" width="180" height="60"/>
    <text font-size="16.9333" style="fill: #000000;text-anchor:middle;font-family:sans-serif;font-style:italic;font-weight:normal" x="210.275" y="236.467">
      <tspan x="210.275" y="236.467">Hashed Item</tspan>
    </text>
  </g>
  <g>
    <polyline style="fill: none; fill-opacity:0; stroke-width: 2; stroke: #000000" points="210.276,200 210.276,180 405.138,180 405.138,152.236 "/>
    <polygon style="fill: #ffffff" points="420.138,152.236 405.138,122.236 390.138,152.236 "/>
    <polygon style="fill: none; fill-opacity:0; stroke-width: 2; stroke: #000000" points="420.138,152.236 405.138,122.236 390.138,152.236 "/>
  </g>
  <g>
    <line style="fill: none; fill-opacity:0; stroke-width: 2; stroke: #000000" x1="450" y1="360" x2="450.187" y2="292.236"/>
    <polygon style="fill: #ffffff" points="465.187,292.277 450.27,262.236 435.187,292.195 "/>
    <polygon style="fill: none; fill-opacity:0; stroke-width: 2; stroke: #000000" points="465.187,292.277 450.27,262.236 435.187,292.195 "/>
  </g>
  <g>
    <polyline style="fill: none; fill-opacity:0; stroke-width: 2; stroke: #000000" points="405,360 405,320 210.276,320 210.276,292.236 "/>
    <polygon style="fill: #ffffff" points="225.276,292.236 210.276,262.236 195.276,292.236 "/>
    <polygon style="fill: none; fill-opacity:0; stroke-width: 2; stroke: #000000" points="225.276,292.236 210.276,262.236 195.276,292.236 "/>
  </g>
  <g>
    <rect style="fill: #bfbfbf" x="360" y="540" width="180" height="60"/>
    <rect style="fill: none; fill-opacity:0; stroke-width: 2; stroke: #000000" x="360" y="540" width="180" height="60"/>
    <text font-size="16.9333" style="fill: #000000;text-anchor:middle;font-family:sans-serif;font-style:normal;font-weight:700" x="450" y="572.117">
      <tspan x="450" y="572.117">Party</tspan>
    </text>
  </g>
  <g>
    <polyline style="fill: none; fill-opacity:0; stroke-width: 2; stroke: #000000" points="690,860 690,320 690,320 690,312.236 "/>
    <polygon style="fill: #ffffff" points="705,312.236 690,282.236 675,312.236 "/>
    <polygon style="fill: none; fill-opacity:0; stroke-width: 2; stroke: #000000" points="705,312.236 690,282.236 675,312.236 "/>
  </g>
  <g>
    <rect style="fill: #ffffff" x="240" y="760" width="180" height="60"/>
    <rect style="fill: none; fill-opacity:0; stroke-width: 2; stroke: #000000" x="240" y="760" width="180" height="60"/>
    <text font-size="16.9333" style="fill: #000000;text-anchor:middle;font-family:sans-serif;font-style:normal;font-weight:700" x="330" y="792.117">
      <tspan x="330" y="792.117">Email Address</tspan>
    </text>
  </g>
  <g>
    <rect style="fill: #ffffff" x="0" y="560" width="180" height="60"/>
    <rect style="fill: none; fill-opacity:0; stroke-width: 2; stroke: #000000" x="0" y="560" width="180" height="60"/>
    <text font-size="16.9333" style="fill: #000000;text-anchor:middle;font-family:sans-serif;font-style:normal;font-weight:700" x="90" y="592.117">
      <tspan x="90" y="592.117">Phone Number</tspan>
    </text>
  </g>
  <g>
    <rect style="fill: #ffffff" x="120" y="660" width="180" height="60"/>
    <rect style="fill: none; fill-opacity:0; stroke-width: 2; stroke: #000000" x="120" y="660" width="180" height="60"/>
    <text font-size="16.9333" style="fill: #000000;text-anchor:middle;font-family:sans-serif;font-style:normal;font-weight:700" x="210" y="692.117">
      <tspan x="210" y="692.117">Mail Address</tspan>
    </text>
  </g>
  <g>
    <rect style="fill: #ffffff" x="600" y="860" width="180" height="60"/>
    <rect style="fill: none; fill-opacity:0; stroke-width: 2; stroke: #000000" x="600" y="860" width="180" height="60"/>
    <text font-size="16.9333" style="fill: #000000;text-anchor:middle;font-family:sans-serif;font-style:normal;font-weight:700" x="690" y="892.117">
      <tspan x="690" y="892.117">Contact</tspan>
    </text>
  </g>
  <g>
    <polyline style="fill: none; fill-opacity:0; stroke-width: 2; stroke: #000000" points="669,860.011 669,328.952 497.989,328.952 497.989,292.236 "/>
    <polygon style="fill: #ffffff" points="512.989,292.236 497.989,262.236 482.989,292.236 "/>
    <polygon style="fill: none; fill-opacity:0; stroke-width: 2; stroke: #000000" points="512.989,292.236 497.989,262.236 482.989,292.236 "/>
  </g>
  <g>
    <polyline style="fill: none; fill-opacity:0; stroke-width: 2; stroke: #000000" points="450,540 450,480 450,480 450,452.236 "/>
    <polygon style="fill: #ffffff" points="465,452.236 450,422.236 435,452.236 "/>
    <polygon style="fill: none; fill-opacity:0; stroke-width: 2; stroke: #000000" points="465,452.236 450,422.236 435,452.236 "/>
  </g>
  <g>
    <polyline style="fill: none; fill-opacity:0; stroke-width: 2; stroke: #000000" points="90,560 90,480 405,480 405,452.236 "/>
    <polygon style="fill: #ffffff" points="420,452.236 405,422.236 390,452.236 "/>
    <polygon style="fill: none; fill-opacity:0; stroke-width: 2; stroke: #000000" points="420,452.236 405,422.236 390,452.236 "/>
  </g>
  <g>
    <polyline style="fill: none; fill-opacity:0; stroke-width: 2; stroke: #000000" points="210,660 210,500 405,500 405,452.236 "/>
    <polygon style="fill: #ffffff" points="420,452.236 405,422.236 390,452.236 "/>
    <polygon style="fill: none; fill-opacity:0; stroke-width: 2; stroke: #000000" points="420,452.236 405,422.236 390,452.236 "/>
  </g>
  <g>
    <polyline style="fill: none; fill-opacity:0; stroke-width: 2; stroke: #000000" points="330,760 330,520 405,520 405,452.236 "/>
    <polygon style="fill: #ffffff" points="420,452.236 405,422.236 390,452.236 "/>
    <polygon style="fill: none; fill-opacity:0; stroke-width: 2; stroke: #000000" points="420,452.236 405,422.236 390,452.236 "/>
  </g>
  <g>
    <polyline style="fill: none; fill-opacity:0; stroke-width: 2; stroke: #000000" points="540,570 645,570 645,839 "/>
    <polygon style="fill: #000000" points="635,839 645,859 655,839 "/>
    <polygon style="fill: none; fill-opacity:0; stroke-width: 2; stroke: #000000" points="635,839 645,859 655,839 "/>
  </g>
  <g>
    <polyline style="fill: none; fill-opacity:0; stroke-width: 2; stroke: #000000" points="600,875 330,875 330,860 "/>
    <polygon style="fill: #000000" points="340,840 330,820 320,840 "/>
    <polygon style="fill: #000000" points="340,860 330,840 320,860 "/>
  </g>
  <g>
    <polyline style="fill: none; fill-opacity:0; stroke-width: 2; stroke: #000000" points="600,890 210,890 210,760 "/>
    <polygon style="fill: #000000" points="220,740 210,720 200,740 "/>
    <polygon style="fill: #000000" points="220,760 210,740 200,760 "/>
  </g>
  <g>
    <polyline style="fill: none; fill-opacity:0; stroke-width: 2; stroke: #000000" points="600,905 90,905 90,660 "/>
    <polygon style="fill: #000000" points="100,640 90,620 80,640 "/>
    <polygon style="fill: #000000" points="100,660 90,640 80,660 "/>
  </g>
  <g>
    <rect style="fill: #ffffff" x="360" y="660" width="180" height="60"/>
    <rect style="fill: none; fill-opacity:0; stroke-width: 2; stroke: #000000" x="360" y="660" width="180" height="60"/>
    <text font-size="16.9333" style="fill: #000000;text-anchor:middle;font-family:sans-serif;font-style:normal;font-weight:700" x="450" y="692.117">
      <tspan x="450" y="692.117">Person</tspan>
    </text>
  </g>
  <g>
    <line style="fill: none; fill-opacity:0; stroke-width: 2; stroke: #000000" x1="450" y1="660" x2="450" y2="632.236"/>
    <polygon style="fill: #ffffff" points="465,632.236 450,602.236 435,632.236 "/>
    <polygon style="fill: none; fill-opacity:0; stroke-width: 2; stroke: #000000" points="465,632.236 450,602.236 435,632.236 "/>
  </g>
</svg>
