<?xml version="1.0" encoding="UTF-8" standalone="no"?>
<!DOCTYPE svg PUBLIC "-//W3C//DTD SVG 1.0//EN" "http://www.w3.org/TR/2001/PR-SVG-20010719/DTD/svg10.dtd">
<svg width="20cm" height="10cm" viewBox="18 15 823 385" xmlns="http://www.w3.org/2000/svg" xmlns:xlink="http://www.w3.org/1999/xlink">
  <g>
    <rect style="fill: #e5e5e5" x="20" y="60" width="300" height="320"/>
    <rect style="fill: none; fill-opacity:0; stroke-width: 2; stroke: #000000" x="20" y="60" width="300" height="320"/>
    <text font-size="16.9333" style="fill: #000000;text-anchor:middle;font-family:sans-serif;font-style:normal;font-weight:700" x="170" y="222.117">
      <tspan x="170" y="222.117"></tspan>
    </text>
  </g>
  <g>
    <rect style="fill: #e5e5e5" x="620" y="60" width="220" height="320"/>
    <rect style="fill: none; fill-opacity:0; stroke-width: 2; stroke: #000000" x="620" y="60" width="220" height="320"/>
    <text font-size="16.9333" style="fill: #000000;text-anchor:middle;font-family:sans-serif;font-style:normal;font-weight:700" x="730" y="222.117">
      <tspan x="730" y="222.117"></tspan>
    </text>
  </g>
  <g>
    <rect style="fill: #e5e5e5" x="360" y="60" width="220" height="100"/>
    <rect style="fill: none; fill-opacity:0; stroke-width: 2; stroke: #000000" x="360" y="60" width="220" height="100"/>
    <text font-size="16.9333" style="fill: #000000;text-anchor:middle;font-family:sans-serif;font-style:normal;font-weight:700" x="470" y="112.117">
      <tspan x="470" y="112.117"></tspan>
    </text>
  </g>
  <g>
    <rect style="fill: #add8e6" x="380" y="80" width="180.55" height="60"/>
    <rect style="fill: none; fill-opacity:0; stroke-width: 2; stroke: #000000" x="380" y="80" width="180.55" height="60"/>
    <text font-size="16.9333" style="fill: #000000;text-anchor:middle;font-family:sans-serif;font-style:italic;font-weight:normal" x="470.275" y="116.467">
      <tspan x="470.275" y="116.467">IPerson Service</tspan>
    </text>
  </g>
  <g>
    <rect style="fill: #ffffff" x="640" y="180" width="180" height="60"/>
    <rect style="fill: none; fill-opacity:0; stroke-width: 2; stroke: #000000" x="640" y="180" width="180" height="60"/>
    <text font-size="16.9333" style="fill: #000000;text-anchor:middle;font-family:sans-serif;font-style:normal;font-weight:700" x="730" y="212.117">
      <tspan x="730" y="212.117">Person Facade</tspan>
    </text>
  </g>
  <g>
    <rect style="fill: #ffffff" x="120" y="180" width="180" height="64.3333"/>
    <rect style="fill: none; fill-opacity:0; stroke-width: 2; stroke: #000000" x="120" y="180" width="180" height="64.3333"/>
    <text font-size="16.9333" style="fill: #000000;text-anchor:middle;font-family:sans-serif;font-style:normal;font-weight:700" x="210" y="203.7">
      <tspan x="210" y="203.7">Person Service</tspan>
      <tspan x="210" y="224.867">(Proxy)</tspan>
    </text>
  </g>
  <g>
    <rect style="fill: #e5e5e5" x="360" y="16.8333" width="120" height="43.1667"/>
    <rect style="fill: none; fill-opacity:0; stroke-width: 2; stroke: #000000" x="360" y="16.8333" width="120" height="43.1667"/>
    <text font-size="15.8044" style="fill: #000000;text-anchor:middle;font-family:sans-serif;font-style:normal;font-weight:700" x="420" y="40.3889">
      <tspan x="420" y="40.3889">axiom-faces</tspan>
    </text>
  </g>
  <g>
    <polyline style="fill: none; fill-opacity:0; stroke-width: 2; stroke-dasharray: 6; stroke: #000000" points="300,212.167 425.138,212.167 425.138,172.236 "/>
    <polygon style="fill: #ffffff" points="440.138,172.236 425.138,142.236 410.138,172.236 "/>
    <polygon style="fill: none; fill-opacity:0; stroke-width: 2; stroke: #000000" points="440.138,172.236 425.138,142.236 410.138,172.236 "/>
  </g>
  <g>
    <polyline style="fill: none; fill-opacity:0; stroke-width: 2; stroke-dasharray: 6; stroke: #000000" points="640,210 515.413,210 515.413,172.236 "/>
    <polygon style="fill: #ffffff" points="530.413,172.236 515.413,142.236 500.413,172.236 "/>
    <polygon style="fill: none; fill-opacity:0; stroke-width: 2; stroke: #000000" points="530.413,172.236 515.413,142.236 500.413,172.236 "/>
  </g>
  <g>
    <path style="fill: #90ee90" d="M 640 300 L 820,300 L 820,351.429 C 784,342.857 766,342.857 730,351.429 C 694,360 676,360 640,351.429 L 640,300z"/>
    <path style="fill: none; fill-opacity:0; stroke-width: 2; stroke: #000000" d="M 640 300 L 820,300 L 820,351.429 C 784,342.857 766,342.857 730,351.429 C 694,360 676,360 640,351.429 L 640,300"/>
    <text font-size="16.9333" style="fill: #000000;text-anchor:middle;font-family:sans-serif;font-style:normal;font-weight:700" x="730" y="323.545">
      <tspan x="730" y="323.545">hosted-service.xml</tspan>
    </text>
  </g>
  <text font-size="12.7998" style="fill: #000000;text-anchor:start;font-family:sans-serif;font-style:normal;font-weight:normal" x="730" y="330">
    <tspan x="730" y="330"></tspan>
  </text>
  <g>
    <polyline style="fill: none; fill-opacity:0; stroke-width: 2; stroke-dasharray: 10 4 2 4; stroke: #000000" points="730,300 730,280 730,280 730,249.736 "/>
    <polygon style="fill: #000000" points="730,242.236 735,252.236 730,249.736 725,252.236 "/>
    <polygon style="fill: none; fill-opacity:0; stroke-width: 2; stroke: #000000" points="730,242.236 735,252.236 730,249.736 725,252.236 "/>
  </g>
  <g>
    <path style="fill: #90ee90" d="M 120 300 L 300,300 L 300,351.429 C 264,342.857 246,342.857 210,351.429 C 174,360 156,360 120,351.429 L 120,300z"/>
    <path style="fill: none; fill-opacity:0; stroke-width: 2; stroke: #000000" d="M 120 300 L 300,300 L 300,351.429 C 264,342.857 246,342.857 210,351.429 C 174,360 156,360 120,351.429 L 120,300"/>
    <text font-size="16.9333" style="fill: #000000;text-anchor:middle;font-family:sans-serif;font-style:normal;font-weight:700" x="210" y="323.545">
      <tspan x="210" y="323.545">service-client.xml</tspan>
    </text>
  </g>
  <g>
    <polyline style="fill: none; fill-opacity:0; stroke-width: 2; stroke-dasharray: 10 4 2 4; stroke: #000000" points="210,300 210,280 210,280 210,254.069 "/>
    <polygon style="fill: #000000" points="210,246.569 215,256.569 210,254.069 205,256.569 "/>
    <polygon style="fill: none; fill-opacity:0; stroke-width: 2; stroke: #000000" points="210,246.569 215,256.569 210,254.069 205,256.569 "/>
  </g>
  <g>
    <rect style="fill: #ffffff" x="40" y="80" width="140" height="60"/>
    <rect style="fill: none; fill-opacity:0; stroke-width: 2; stroke: #000000" x="40" y="80" width="140" height="60"/>
    <text font-size="16.9333" style="fill: #000000;text-anchor:middle;font-family:sans-serif;font-style:normal;font-weight:700" x="110" y="112.117">
      <tspan x="110" y="112.117">Service Test</tspan>
    </text>
  </g>
  <g>
    <rect style="fill: #e5e5e5" x="620" y="20" width="141.2" height="40"/>
    <rect style="fill: none; fill-opacity:0; stroke-width: 2; stroke: #000000" x="620" y="20" width="141.2" height="40"/>
    <text font-size="15.8044" style="fill: #000000;text-anchor:middle;font-family:sans-serif;font-style:normal;font-weight:700" x="690.6" y="41.9722">
      <tspan x="690.6" y="41.9722">axiom-service</tspan>
    </text>
  </g>
  <g>
    <rect style="fill: #e5e5e5" x="20" y="20" width="180" height="40"/>
    <rect style="fill: none; fill-opacity:0; stroke-width: 2; stroke: #000000" x="20" y="20" width="180" height="40"/>
    <text font-size="15.8044" style="fill: #000000;text-anchor:middle;font-family:sans-serif;font-style:normal;font-weight:700" x="110" y="41.9722">
      <tspan x="110" y="41.9722">axiom-service (tests)</tspan>
    </text>
  </g>
  <g>
    <line style="fill: none; fill-opacity:0; stroke-width: 2; stroke-dasharray: 6; stroke: #000000" x1="180" y1="110" x2="370.264" y2="110"/>
    <polygon style="fill: #000000" points="377.764,110 367.764,115 370.264,110 367.764,105 "/>
    <polygon style="fill: none; fill-opacity:0; stroke-width: 2; stroke: #000000" points="377.764,110 367.764,115 370.264,110 367.764,105 "/>
  </g>
  <g>
    <polyline style="fill: none; fill-opacity:0; stroke-width: 2; stroke: #000000" points="180,125 210,125 210,170.264 "/>
    <polygon style="fill: #000000" points="210,177.764 205,167.764 210,170.264 215,167.764 "/>
    <polygon style="fill: none; fill-opacity:0; stroke-width: 2; stroke: #000000" points="210,177.764 205,167.764 210,170.264 215,167.764 "/>
  </g>
  <g>
    <rect style="fill: #ffffff" x="640" y="80" width="180" height="60"/>
    <rect style="fill: none; fill-opacity:0; stroke-width: 2; stroke: #000000" x="640" y="80" width="180" height="60"/>
    <text font-size="16.9333" style="fill: #000000;text-anchor:middle;font-family:sans-serif;font-style:normal;font-weight:700" x="730" y="112.117">
      <tspan x="730" y="112.117">Service Controller</tspan>
    </text>
  </g>
  <g>
    <rect style="fill: #add8e6" x="420" y="240" width="100" height="43.1667"/>
    <rect style="fill: none; fill-opacity:0; stroke-width: 2; stroke: #000000" x="420" y="240" width="100" height="43.1667"/>
    <text font-size="16.9333" style="fill: #000000;text-anchor:middle;font-family:sans-serif;font-style:italic;font-weight:normal" x="470" y="268.05">
      <tspan x="470" y="268.05">Interface</tspan>
    </text>
  </g>
  <g>
    <rect style="fill: #ffffff" x="420" y="300" width="100" height="43.1667"/>
    <rect style="fill: none; fill-opacity:0; stroke-width: 2; stroke: #000000" x="420" y="300" width="100" height="43.1667"/>
    <text font-size="16.9333" style="fill: #000000;text-anchor:middle;font-family:sans-serif;font-style:normal;font-weight:700" x="470" y="323.7">
      <tspan x="470" y="323.7">Concrete</tspan>
    </text>
  </g>
  <g>
    <path style="fill: #90ee90" d="M 420 360 L 520,360 L 520,394.286 C 500,388.571 490,388.571 470,394.286 C 450,400 440,400 420,394.286 L 420,360z"/>
    <path style="fill: none; fill-opacity:0; stroke-width: 2; stroke: #000000" d="M 420 360 L 520,360 L 520,394.286 C 500,388.571 490,388.571 470,394.286 C 450,400 440,400 420,394.286 L 420,360"/>
    <text font-size="16.9333" style="fill: #000000;text-anchor:middle;font-family:sans-serif;font-style:normal;font-weight:700" x="470" y="376.402">
      <tspan x="470" y="376.402">config file</tspan>
    </text>
  </g>
</svg>
